<svg width="24" height="24" viewBox="0 0 24 24" fill="none" xmlns="http://www.w3.org/2000/svg">
<g id="Group">
<circle id="Oval" cx="12" cy="12" r="12" fill="white"/>
<g id="google-icon">
<path id="Path" d="M18.4389 12.1271C18.4389 11.574 18.394 11.1703 18.2969 10.7517H11.9805V13.2483H15.688C15.6133 13.8688 15.2097 14.8032 14.3127 15.431L14.3001 15.5146L16.2972 17.0618L16.4356 17.0756C17.7063 15.902 18.4389 14.1752 18.4389 12.1271Z" fill="#4285F4"/>
<path id="Path_2" d="M11.9787 18.7051C13.7951 18.7051 15.32 18.107 16.4338 17.0755L14.3109 15.431C13.7428 15.8271 12.9803 16.1037 11.9787 16.1037C10.1996 16.1037 8.68969 14.9302 8.15144 13.3081L8.07255 13.3148L5.99591 14.9219L5.96875 14.9974C7.07504 17.1951 9.34745 18.7051 11.9787 18.7051Z" fill="#34A853"/>
<path id="Path_3" d="M8.15027 13.3083C8.00825 12.8897 7.92606 12.4411 7.92606 11.9777C7.92606 11.5142 8.00825 11.0657 8.1428 10.6471L8.13904 10.558L6.03638 8.92505L5.96758 8.95777C5.51163 9.86973 5.25 10.8938 5.25 11.9777C5.25 13.0616 5.51163 14.0856 5.96758 14.9976L8.15027 13.3083Z" fill="#FBBC05"/>
<path id="Path_4" d="M11.9787 7.85129C13.2419 7.85129 14.0941 8.39696 14.58 8.85296L16.4786 6.99915C15.3125 5.91528 13.7951 5.25 11.9787 5.25C9.34745 5.25 7.07504 6.75994 5.96875 8.95757L8.14397 10.6469C8.68969 9.02488 10.1996 7.85129 11.9787 7.85129Z" fill="#EB4335"/>
</g>
</g>
</svg>
